<svg xmlns="http://www.w3.org/2000/svg" width="54.641" height="16.41" viewBox="0 0 54.641 16.41"><defs><style>.a{fill:#ff6575;}</style></defs><g transform="translate(20.762 -132)"><g transform="translate(-10.816 132)"><path class="a" d="M44.182,139.268h0l-9.123-6.882a2.16,2.16,0,0,0-2.469,0,1.112,1.112,0,0,0,.006,1.872l6.125,4.62H-8.254A1.52,1.52,0,0,0-9.947,140.2a1.527,1.527,0,0,0,1.692,1.328H38.72l-6.125,4.62a1.112,1.112,0,0,0-.006,1.872,2.16,2.16,0,0,0,2.469,0l9.123-6.882h0A1.113,1.113,0,0,0,44.182,139.268Z" transform="translate(0 -132)"/></g></g></svg>