<svg xmlns="http://www.w3.org/2000/svg" width="38.939" height="11.694" viewBox="0 0 38.939 11.694"><defs><style>.a{fill:#ff6575;}</style></defs><g transform="translate(20.762 -132)"><g transform="translate(-20.762 132)"><path class="a" d="M28.628,137.18h0l-6.5-4.9a1.539,1.539,0,0,0-1.76,0,.792.792,0,0,0,0,1.334l4.365,3.293H-8.74a1.083,1.083,0,0,0-1.206.94,1.088,1.088,0,0,0,1.206.947H24.735l-4.365,3.293a.792.792,0,0,0,0,1.334,1.539,1.539,0,0,0,1.76,0l6.5-4.9h0A.793.793,0,0,0,28.628,137.18Z" transform="translate(9.947 -132)"/></g></g></svg>