<svg xmlns="http://www.w3.org/2000/svg" width="14" height="14" viewBox="0 0 14 14"><defs><style>.a{opacity:0.5;}.b{fill:#6e6e6e;}</style></defs><g class="a" transform="translate(0 0)"><path class="b" d="M13.8,1.243,12.837.288a.694.694,0,0,0-.967,0L7.046,5.112,2.131.2a.694.694,0,0,0-.967,0L.2,1.164a.694.694,0,0,0,0,.967l4.9,4.9L.288,11.87a.694.694,0,0,0,0,.967l.967.967a.694.694,0,0,0,.967,0L7.046,8.98,11.87,13.8a.694.694,0,0,0,.967,0l.967-.967a.694.694,0,0,0,0-.967L8.969,7.046l4.824-4.824A.7.7,0,0,0,13.8,1.243Z" transform="translate(0 0)"/></g></svg>