<svg xmlns="http://www.w3.org/2000/svg" width="20" height="20" viewBox="0 0 20 20"><defs><style>.a{fill:#504f4f;}</style></defs><g transform="translate(0.001)"><path class="a" d="M14.585,0H5.413A5.42,5.42,0,0,0,0,5.414v9.173A5.42,5.42,0,0,0,5.413,20h9.172A5.42,5.42,0,0,0,20,14.586V5.414A5.42,5.42,0,0,0,14.585,0Zm4.241,14.586a4.246,4.246,0,0,1-4.241,4.241H5.413a4.246,4.246,0,0,1-4.241-4.241V5.414A4.246,4.246,0,0,1,5.413,1.172h9.172a4.246,4.246,0,0,1,4.241,4.241Zm0,0"/><path class="a" d="M121.473,116a5.469,5.469,0,1,0,5.469,5.469A5.475,5.475,0,0,0,121.473,116Zm0,9.765a4.3,4.3,0,1,1,4.3-4.3A4.3,4.3,0,0,1,121.473,125.769Zm0,0" transform="translate(-111.474 -111.473)"/><path class="a" d="M359.593,66.285a1.616,1.616,0,1,0,1.616,1.616A1.618,1.618,0,0,0,359.593,66.285Zm0,2.059a.443.443,0,1,1,.444-.443A.444.444,0,0,1,359.593,68.345Zm0,0" transform="translate(-343.994 -63.696)"/></g></svg>