<svg xmlns="http://www.w3.org/2000/svg" width="18.526" height="17.708" viewBox="0 0 18.526 17.708"><defs><style>.a{fill:#504f4f;}</style></defs><g transform="translate(0 0.668)"><path class="a" d="M2.247-.668a2.07,2.07,0,1,0-.052,4.129H2.22A2.071,2.071,0,1,0,2.247-.668Zm0,0"/><path class="a" d="M8.109,198.313h3.971v11.948H8.109Zm0,0" transform="translate(-7.875 -193.221)"/><path class="a" d="M228.766,188.625a4.975,4.975,0,0,0-3.579,2.013v-1.733h-3.972v11.948h3.971v-6.672a2.721,2.721,0,0,1,.131-.969,2.174,2.174,0,0,1,2.038-1.452c1.437,0,2.012,1.1,2.012,2.7v6.392h3.971V194c0-3.67-1.959-5.378-4.572-5.378Zm0,0" transform="translate(-214.811 -183.813)"/></g></svg>